<svg xmlns="http://www.w3.org/2000/svg" viewBox="0 0 64 64" fill="none">
  <!-- TRANSMISSION - Gear/cog with exclamation mark -->
  <g stroke="#ef4444" stroke-width="2.5" stroke-linecap="round" stroke-linejoin="round">
    <!-- Gear/cog wheel -->
    <path d="M32 8l3 6h6l4-4 3 3-4 4v6l6 3v0l-6 3v6l4 4-3 3-4-4h-6l-3 6-3-6h-6l-4 4-3-3 4-4v-6l-6-3v0l6-3v-6l-4-4 3-3 4 4h6z"/>
    <!-- Inner circle of gear -->
    <circle cx="32" cy="32" r="9"/>
    <!-- Exclamation mark -->
    <line x1="32" y1="25" x2="32" y2="34"/>
    <circle cx="32" cy="38" r="1.5" fill="#ef4444" stroke="none"/>
  </g>
</svg>